<svg xmlns="http://www.w3.org/2000/svg" viewBox="0 0 22 33.88"><defs><style>.cls-1{fill:#4353ff;}</style></defs><title>saldologocolor</title><g id="Layer_2" data-name="Layer 2"><g id="Layer_1-2" data-name="Layer 1"><path class="cls-1" d="M22,20.19h0c0-3.1-1.73-5.6-4.87-7-.52-.24-1.06-.46-1.59-.68A16.15,16.15,0,0,0,20.45,1.1,1,1,0,0,0,19.15,0C18.69.15,7.92,2.93,4.34,5.86l0,0,0,0L4,6.2A16.28,16.28,0,0,0,1.69,8.73,9.5,9.5,0,0,0,.12,12.52,8.18,8.18,0,0,0,0,13.65s0,0,0,0c0,3.1,1.73,5.6,4.87,7,.53.24,1.07.46,1.61.67A16.16,16.16,0,0,0,1.55,32.78a1,1,0,0,0,1.31,1.07c.46-.12,11.22-2.9,14.8-5.82l0,0,0,0,.31-.29a16.65,16.65,0,0,0,2.28-2.52,9.56,9.56,0,0,0,1.57-3.79A8.76,8.76,0,0,0,22,20.2h0Zm-8.72-8.57c-2.07-.72-4.1-1.3-5.87-1.8a6.63,6.63,0,0,1-2-.83.44.44,0,0,1-.21-.36,1.77,1.77,0,0,1,.55-1.19c2.54-2,9.48-4.14,12.51-5A13.21,13.21,0,0,1,13.28,11.62ZM8.73,22.26c1.86.65,3.79,1.22,5.86,1.8a6.55,6.55,0,0,1,2,.83.43.43,0,0,1,.21.35,1.77,1.77,0,0,1-.55,1.19c-2.54,2-9.48,4.14-12.51,5A13.21,13.21,0,0,1,8.73,22.26ZM18.58,24a2.64,2.64,0,0,0-.73-.78A8.42,8.42,0,0,0,15.16,22a65.29,65.29,0,0,1-9.41-3.21,5.61,5.61,0,0,1-3.64-5.12,8.18,8.18,0,0,1,.09-.85A7.53,7.53,0,0,1,3.42,9.92a2.68,2.68,0,0,0,.73.79,8.49,8.49,0,0,0,2.68,1.14,65.41,65.41,0,0,1,9.41,3.22,5.6,5.6,0,0,1,3.64,5.1A6.93,6.93,0,0,1,18.58,24Z"/></g></g></svg>